<svg xmlns="http://www.w3.org/2000/svg" width="1200" height="760" viewBox="0 0 1200 760" role="img" aria-labelledby="title desc">
<title id="title">Corpus engineering lifecycle</title>
<desc id="desc">CRC corpus-entry explanatory figure proposed for admission.</desc>
<metadata><![CDATA[
Artifact type: Explanatory artifact
Identifier: CRC-CORPUS-ENTRY
Version: v1.0
Status: Current
Owning authority: Professor Bone Lab
Ratifying authority: Faheem Downs
Ratification state: Ratified by Faheem Downs on 2026-07-12
Authority effect: none beyond the prose it illustrates
Source prose: 08-corpus-engineering-methodology.md, ## Corpus Engineering Lifecycle
]]></metadata>
<defs>
  <marker id="arrow" markerWidth="10" markerHeight="10" refX="8" refY="3" orient="auto" markerUnits="strokeWidth">
    <path d="M0,0 L0,6 L9,3 z" fill="#52606d"/>
  </marker>
  <style><![CDATA[
    .title { font: 700 16px Arial, sans-serif; fill: #1f2933; }
    .body { font: 13px Arial, sans-serif; fill: #1f2933; }
    .label { font: 12px Arial, sans-serif; fill: #52606d; }
    .heading { font: 700 22px Arial, sans-serif; fill: #1f2933; }
    .group { font: 700 15px Arial, sans-serif; fill: #52606d; }
  ]]></style>
</defs>
<rect x="0" y="0" width="1200" height="760" fill="#fbfbf8"/>
<text x="40" y="44" class="heading">Corpus engineering lifecycle</text>
<rect x="55" y="100" width="230" height="85" rx="6" fill="#d9e8f6" stroke="#7b8794" stroke-width="1.4"/>
<text x="170.0" y="124" text-anchor="middle" class="title">Orientation</text>
<rect x="340" y="100" width="230" height="85" rx="6" fill="#d9e8f6" stroke="#7b8794" stroke-width="1.4"/>
<text x="455.0" y="124" text-anchor="middle" class="title">Live-source verification</text>
<rect x="625" y="100" width="230" height="85" rx="6" fill="#d9e8f6" stroke="#7b8794" stroke-width="1.4"/>
<text x="740.0" y="124" text-anchor="middle" class="title">Specification</text>
<rect x="910" y="100" width="230" height="85" rx="6" fill="#d9e8f6" stroke="#7b8794" stroke-width="1.4"/>
<text x="1025.0" y="124" text-anchor="middle" class="title">Candidate generation</text>
<rect x="55" y="265" width="230" height="85" rx="6" fill="#d9e8f6" stroke="#7b8794" stroke-width="1.4"/>
<text x="170.0" y="289" text-anchor="middle" class="title">Validation</text>
<rect x="340" y="265" width="230" height="85" rx="6" fill="#d9e8f6" stroke="#7b8794" stroke-width="1.4"/>
<text x="455.0" y="289" text-anchor="middle" class="title">Review</text>
<rect x="625" y="265" width="230" height="85" rx="6" fill="#dcebd8" stroke="#7b8794" stroke-width="1.4"/>
<text x="740.0" y="289" text-anchor="middle" class="title">Ratification</text>
<rect x="910" y="265" width="230" height="85" rx="6" fill="#dcebd8" stroke="#7b8794" stroke-width="1.4"/>
<text x="1025.0" y="289" text-anchor="middle" class="title">Authorized apply</text>
<rect x="55" y="430" width="230" height="85" rx="6" fill="#d9e8f6" stroke="#7b8794" stroke-width="1.4"/>
<text x="170.0" y="454" text-anchor="middle" class="title">Unstaged diff review</text>
<rect x="340" y="430" width="230" height="85" rx="6" fill="#dcebd8" stroke="#7b8794" stroke-width="1.4"/>
<text x="455.0" y="454" text-anchor="middle" class="title">Staging authorization</text>
<rect x="625" y="430" width="230" height="85" rx="6" fill="#d9e8f6" stroke="#7b8794" stroke-width="1.4"/>
<text x="740.0" y="454" text-anchor="middle" class="title">Staged review</text>
<rect x="910" y="430" width="230" height="85" rx="6" fill="#dcebd8" stroke="#7b8794" stroke-width="1.4"/>
<text x="1025.0" y="454" text-anchor="middle" class="title">Commit authorization and execution</text>
<rect x="55" y="595" width="230" height="85" rx="6" fill="#dcebd8" stroke="#7b8794" stroke-width="1.4"/>
<text x="170.0" y="619" text-anchor="middle" class="title">Push authorization and execution</text>
<rect x="340" y="595" width="230" height="85" rx="6" fill="#d9e8f6" stroke="#7b8794" stroke-width="1.4"/>
<text x="455.0" y="619" text-anchor="middle" class="title">Maintained-workspace state update</text>
<line x1="285" y1="142" x2="340" y2="142" stroke="#52606d" stroke-width="1.5" marker-end="url(#arrow)"/>
<line x1="570" y1="142" x2="625" y2="142" stroke="#52606d" stroke-width="1.5" marker-end="url(#arrow)"/>
<line x1="855" y1="142" x2="910" y2="142" stroke="#52606d" stroke-width="1.5" marker-end="url(#arrow)"/>
<line x1="1025" y1="185" x2="170" y2="265" stroke="#52606d" stroke-width="1.5" marker-end="url(#arrow)"/>
<line x1="285" y1="307" x2="340" y2="307" stroke="#52606d" stroke-width="1.5" marker-end="url(#arrow)"/>
<line x1="570" y1="307" x2="625" y2="307" stroke="#52606d" stroke-width="1.5" marker-end="url(#arrow)"/>
<line x1="855" y1="307" x2="910" y2="307" stroke="#52606d" stroke-width="1.5" marker-end="url(#arrow)"/>
<line x1="1025" y1="350" x2="170" y2="430" stroke="#52606d" stroke-width="1.5" marker-end="url(#arrow)"/>
<line x1="285" y1="472" x2="340" y2="472" stroke="#52606d" stroke-width="1.5" marker-end="url(#arrow)"/>
<line x1="570" y1="472" x2="625" y2="472" stroke="#52606d" stroke-width="1.5" marker-end="url(#arrow)"/>
<line x1="855" y1="472" x2="910" y2="472" stroke="#52606d" stroke-width="1.5" marker-end="url(#arrow)"/>
<line x1="1025" y1="515" x2="170" y2="595" stroke="#52606d" stroke-width="1.5" marker-end="url(#arrow)"/>
<line x1="285" y1="637" x2="340" y2="637" stroke="#52606d" stroke-width="1.5" marker-end="url(#arrow)"/>
</svg>
