<svg xmlns="http://www.w3.org/2000/svg" width="1200" height="760" viewBox="0 0 1200 760" role="img" aria-labelledby="title desc">
<title id="title">Governed change set structure</title>
<desc id="desc">CRC corpus-entry explanatory figure proposed for admission.</desc>
<metadata><![CDATA[
Artifact type: Explanatory artifact
Identifier: CRC-CORPUS-ENTRY
Version: v1.0
Status: Current
Owning authority: Professor Bone Lab
Ratifying authority: Faheem Downs
Ratification state: Ratified by Faheem Downs on 2026-07-12
Authority effect: none beyond the prose it illustrates
Source prose: 06-amendments-and-versioning.md, ## Governed Change Sets
]]></metadata>
<defs>
  <marker id="arrow" markerWidth="10" markerHeight="10" refX="8" refY="3" orient="auto" markerUnits="strokeWidth">
    <path d="M0,0 L0,6 L9,3 z" fill="#52606d"/>
  </marker>
  <style><![CDATA[
    .title { font: 700 16px Arial, sans-serif; fill: #1f2933; }
    .body { font: 13px Arial, sans-serif; fill: #1f2933; }
    .label { font: 12px Arial, sans-serif; fill: #52606d; }
    .heading { font: 700 22px Arial, sans-serif; fill: #1f2933; }
    .group { font: 700 15px Arial, sans-serif; fill: #52606d; }
  ]]></style>
</defs>
<rect x="0" y="0" width="1200" height="760" fill="#fbfbf8"/>
<text x="40" y="44" class="heading">Governed change set structure</text>
<rect x="45" y="92" width="1110" height="250" rx="8" fill="#ffffff" stroke="#7b8794" stroke-width="1.5"/>
<text x="70" y="122" class="group">Coordinated components inside one governed change set</text>
<rect x="70" y="155" width="185" height="105" rx="6" fill="#d9e8f6" stroke="#7b8794" stroke-width="1.4"/>
<text x="162.5" y="179" text-anchor="middle" class="title">Paper amendment</text>
<text x="162.5" y="203" text-anchor="middle" class="body">Substantive paper</text>
<text x="162.5" y="221" text-anchor="middle" class="body">change</text>
<rect x="285" y="155" width="185" height="105" rx="6" fill="#dcebd8" stroke="#7b8794" stroke-width="1.4"/>
<text x="377.5" y="179" text-anchor="middle" class="title">Back-reference</text>
<text x="377.5" y="203" text-anchor="middle" class="body">Required reverse</text>
<text x="377.5" y="221" text-anchor="middle" class="body">citation</text>
<rect x="500" y="155" width="185" height="105" rx="6" fill="#f6ead1" stroke="#7b8794" stroke-width="1.4"/>
<text x="592.5" y="179" text-anchor="middle" class="title">CRC-SSR update</text>
<text x="592.5" y="203" text-anchor="middle" class="body">Where required</text>
<rect x="715" y="155" width="185" height="105" rx="6" fill="#f4dada" stroke="#7b8794" stroke-width="1.4"/>
<text x="807.5" y="179" text-anchor="middle" class="title">README update</text>
<text x="807.5" y="203" text-anchor="middle" class="body">Navigation where</text>
<text x="807.5" y="221" text-anchor="middle" class="body">required</text>
<rect x="930" y="155" width="185" height="105" rx="6" fill="#e5ddf2" stroke="#7b8794" stroke-width="1.4"/>
<text x="1022.5" y="179" text-anchor="middle" class="title">Receipt</text>
<text x="1022.5" y="203" text-anchor="middle" class="body">Evidence where</text>
<text x="1022.5" y="221" text-anchor="middle" class="body">required</text>
<rect x="60" y="430" width="230" height="90" rx="6" fill="#e6e8eb" stroke="#7b8794" stroke-width="1.4"/>
<text x="175.0" y="454" text-anchor="middle" class="title">Validate set</text>
<text x="175.0" y="478" text-anchor="middle" class="body">Coordinated checks</text>
<rect x="345" y="430" width="230" height="90" rx="6" fill="#e6e8eb" stroke="#7b8794" stroke-width="1.4"/>
<text x="460.0" y="454" text-anchor="middle" class="title">Review</text>
<text x="460.0" y="478" text-anchor="middle" class="body">Human review</text>
<rect x="630" y="430" width="230" height="90" rx="6" fill="#e6e8eb" stroke="#7b8794" stroke-width="1.4"/>
<text x="745.0" y="454" text-anchor="middle" class="title">Ratify</text>
<text x="745.0" y="478" text-anchor="middle" class="body">Authority decision</text>
<rect x="915" y="430" width="230" height="90" rx="6" fill="#e6e8eb" stroke="#7b8794" stroke-width="1.4"/>
<text x="1030.0" y="454" text-anchor="middle" class="title">Apply</text>
<text x="1030.0" y="478" text-anchor="middle" class="body">Authorized unstaged apply</text>
<rect x="60" y="590" width="230" height="90" rx="6" fill="#d9e8f6" stroke="#7b8794" stroke-width="1.4"/>
<text x="175.0" y="614" text-anchor="middle" class="title">Diff review</text>
<text x="175.0" y="638" text-anchor="middle" class="body">Unstaged diff</text>
<rect x="345" y="590" width="230" height="90" rx="6" fill="#d9e8f6" stroke="#7b8794" stroke-width="1.4"/>
<text x="460.0" y="614" text-anchor="middle" class="title">Stage and review</text>
<text x="460.0" y="638" text-anchor="middle" class="body">Exact paths and cached diff</text>
<rect x="630" y="590" width="230" height="90" rx="6" fill="#d9e8f6" stroke="#7b8794" stroke-width="1.4"/>
<text x="745.0" y="614" text-anchor="middle" class="title">Commit</text>
<text x="745.0" y="638" text-anchor="middle" class="body">Authorized commit</text>
<rect x="915" y="590" width="230" height="90" rx="6" fill="#d9e8f6" stroke="#7b8794" stroke-width="1.4"/>
<text x="1030.0" y="614" text-anchor="middle" class="title">Push</text>
<text x="1030.0" y="638" text-anchor="middle" class="body">Authorized push</text>
<line x1="290" y1="475" x2="345" y2="475" stroke="#52606d" stroke-width="1.5" marker-end="url(#arrow)"/>
<line x1="575" y1="475" x2="630" y2="475" stroke="#52606d" stroke-width="1.5" marker-end="url(#arrow)"/>
<line x1="860" y1="475" x2="915" y2="475" stroke="#52606d" stroke-width="1.5" marker-end="url(#arrow)"/>
<line x1="1030" y1="520" x2="175" y2="590" stroke="#52606d" stroke-width="1.5" marker-end="url(#arrow)"/>
<line x1="290" y1="635" x2="345" y2="635" stroke="#52606d" stroke-width="1.5" marker-end="url(#arrow)"/>
<line x1="575" y1="635" x2="630" y2="635" stroke="#52606d" stroke-width="1.5" marker-end="url(#arrow)"/>
<line x1="860" y1="635" x2="915" y2="635" stroke="#52606d" stroke-width="1.5" marker-end="url(#arrow)"/>
<line x1="600" y1="342" x2="175" y2="430" stroke="#52606d" stroke-width="1.5" marker-end="url(#arrow)"/>
<text x="387.5" y="378.0" text-anchor="middle" class="label">enters sequence</text>
</svg>
