<svg xmlns="http://www.w3.org/2000/svg" width="1200" height="780" viewBox="0 0 1200 780" role="img" aria-labelledby="title desc">
<title id="title">Public artifact admission workflow</title>
<desc id="desc">CRC corpus-entry explanatory figure proposed for admission.</desc>
<metadata><![CDATA[
Artifact type: Explanatory artifact
Identifier: CRC-CORPUS-ENTRY
Version: v1.0
Status: Current
Owning authority: Professor Bone Lab
Ratifying authority: Faheem Downs
Ratification state: Ratified by Faheem Downs on 2026-07-12
Authority effect: none beyond the prose it illustrates
Source prose: 05-public-artifact-admission.md, ## Public Artifact Declaration
]]></metadata>
<defs>
  <marker id="arrow" markerWidth="10" markerHeight="10" refX="8" refY="3" orient="auto" markerUnits="strokeWidth">
    <path d="M0,0 L0,6 L9,3 z" fill="#52606d"/>
  </marker>
  <style><![CDATA[
    .title { font: 700 16px Arial, sans-serif; fill: #1f2933; }
    .body { font: 13px Arial, sans-serif; fill: #1f2933; }
    .label { font: 12px Arial, sans-serif; fill: #52606d; }
    .heading { font: 700 22px Arial, sans-serif; fill: #1f2933; }
    .group { font: 700 15px Arial, sans-serif; fill: #52606d; }
  ]]></style>
</defs>
<rect x="0" y="0" width="1200" height="780" fill="#fbfbf8"/>
<text x="40" y="44" class="heading">Public artifact admission workflow</text>
<rect x="55" y="100" width="230" height="95" rx="6" fill="#d9e8f6" stroke="#7b8794" stroke-width="1.4"/>
<text x="170.0" y="124" text-anchor="middle" class="title">1 Necessity test</text>
<text x="170.0" y="148" text-anchor="middle" class="body">Need belongs in public</text>
<text x="170.0" y="166" text-anchor="middle" class="body">corpus</text>
<rect x="340" y="100" width="230" height="95" rx="6" fill="#d9e8f6" stroke="#7b8794" stroke-width="1.4"/>
<text x="455.0" y="124" text-anchor="middle" class="title">2 Primary classification</text>
<text x="455.0" y="148" text-anchor="middle" class="body">One primary class</text>
<rect x="625" y="100" width="230" height="95" rx="6" fill="#d9e8f6" stroke="#7b8794" stroke-width="1.4"/>
<text x="740.0" y="124" text-anchor="middle" class="title">3 Authority analysis</text>
<text x="740.0" y="148" text-anchor="middle" class="body">Authority and public surface</text>
<rect x="910" y="100" width="230" height="95" rx="6" fill="#d9e8f6" stroke="#7b8794" stroke-width="1.4"/>
<text x="1025.0" y="124" text-anchor="middle" class="title">4 Declaration</text>
<text x="1025.0" y="148" text-anchor="middle" class="body">Public Artifact Declaration</text>
<rect x="55" y="275" width="230" height="95" rx="6" fill="#dcebd8" stroke="#7b8794" stroke-width="1.4"/>
<text x="170.0" y="299" text-anchor="middle" class="title">5 Lifecycle plan</text>
<text x="170.0" y="323" text-anchor="middle" class="body">Validation and lifecycle</text>
<rect x="340" y="275" width="230" height="95" rx="6" fill="#dcebd8" stroke="#7b8794" stroke-width="1.4"/>
<text x="455.0" y="299" text-anchor="middle" class="title">6 Package review</text>
<text x="455.0" y="323" text-anchor="middle" class="body">Candidate-package review</text>
<rect x="625" y="275" width="230" height="95" rx="6" fill="#dcebd8" stroke="#7b8794" stroke-width="1.4"/>
<text x="740.0" y="299" text-anchor="middle" class="title">7 Ratification</text>
<text x="740.0" y="323" text-anchor="middle" class="body">Faheem ratification</text>
<rect x="910" y="275" width="230" height="95" rx="6" fill="#dcebd8" stroke="#7b8794" stroke-width="1.4"/>
<text x="1025.0" y="299" text-anchor="middle" class="title">8 Apply</text>
<text x="1025.0" y="323" text-anchor="middle" class="body">Authorized unstaged apply</text>
<rect x="55" y="450" width="230" height="95" rx="6" fill="#f6ead1" stroke="#7b8794" stroke-width="1.4"/>
<text x="170.0" y="474" text-anchor="middle" class="title">9 Unstaged review</text>
<text x="170.0" y="498" text-anchor="middle" class="body">Changed set and full diff</text>
<rect x="340" y="450" width="230" height="95" rx="6" fill="#f6ead1" stroke="#7b8794" stroke-width="1.4"/>
<text x="455.0" y="474" text-anchor="middle" class="title">10 Staging</text>
<text x="455.0" y="498" text-anchor="middle" class="body">Exact-path staging</text>
<text x="455.0" y="516" text-anchor="middle" class="body">authorized</text>
<rect x="625" y="450" width="230" height="95" rx="6" fill="#f6ead1" stroke="#7b8794" stroke-width="1.4"/>
<text x="740.0" y="474" text-anchor="middle" class="title">11 Staged review</text>
<text x="740.0" y="498" text-anchor="middle" class="body">Cached diff reviewed</text>
<rect x="910" y="450" width="230" height="95" rx="6" fill="#f6ead1" stroke="#7b8794" stroke-width="1.4"/>
<text x="1025.0" y="474" text-anchor="middle" class="title">12 Commit</text>
<text x="1025.0" y="498" text-anchor="middle" class="body">Commit authorized and</text>
<text x="1025.0" y="516" text-anchor="middle" class="body">executed</text>
<rect x="55" y="625" width="230" height="95" rx="6" fill="#f4dada" stroke="#7b8794" stroke-width="1.4"/>
<text x="170.0" y="649" text-anchor="middle" class="title">13 Push</text>
<text x="170.0" y="673" text-anchor="middle" class="body">Push authorized and executed</text>
<rect x="340" y="625" width="230" height="95" rx="6" fill="#f4dada" stroke="#7b8794" stroke-width="1.4"/>
<text x="455.0" y="649" text-anchor="middle" class="title">14 State update</text>
<text x="455.0" y="673" text-anchor="middle" class="body">Maintained workspace if</text>
<text x="455.0" y="691" text-anchor="middle" class="body">applicable</text>
<line x1="285" y1="148" x2="340" y2="148" stroke="#52606d" stroke-width="1.5" marker-end="url(#arrow)"/>
<line x1="570" y1="148" x2="625" y2="148" stroke="#52606d" stroke-width="1.5" marker-end="url(#arrow)"/>
<line x1="855" y1="148" x2="910" y2="148" stroke="#52606d" stroke-width="1.5" marker-end="url(#arrow)"/>
<line x1="1025" y1="195" x2="170" y2="275" stroke="#52606d" stroke-width="1.5" marker-end="url(#arrow)"/>
<line x1="285" y1="323" x2="340" y2="323" stroke="#52606d" stroke-width="1.5" marker-end="url(#arrow)"/>
<line x1="570" y1="323" x2="625" y2="323" stroke="#52606d" stroke-width="1.5" marker-end="url(#arrow)"/>
<line x1="855" y1="323" x2="910" y2="323" stroke="#52606d" stroke-width="1.5" marker-end="url(#arrow)"/>
<line x1="1025" y1="370" x2="170" y2="450" stroke="#52606d" stroke-width="1.5" marker-end="url(#arrow)"/>
<line x1="285" y1="498" x2="340" y2="498" stroke="#52606d" stroke-width="1.5" marker-end="url(#arrow)"/>
<line x1="570" y1="498" x2="625" y2="498" stroke="#52606d" stroke-width="1.5" marker-end="url(#arrow)"/>
<line x1="855" y1="498" x2="910" y2="498" stroke="#52606d" stroke-width="1.5" marker-end="url(#arrow)"/>
<line x1="1025" y1="545" x2="170" y2="625" stroke="#52606d" stroke-width="1.5" marker-end="url(#arrow)"/>
<line x1="285" y1="673" x2="340" y2="673" stroke="#52606d" stroke-width="1.5" marker-end="url(#arrow)"/>
</svg>
